# xmcd
#
# Track frame offsets:
#	150
#	15262
#	33505
#	59381
#	81957
#	111796
#	130307
#	148201
#	168593
#	189002
#	208640
#	224998
#	244510
#	263025
#	290388
#
# Disc length: 4144 seconds
#
# Revision: 0
# Processed by: cddbd v1.5.1PL2 Copyright (c) Steve Scherf et al.
# Submitted via: EasyCDDAExtractor 8.1.2.3
#
DISCID=dd102e0f
DTITLE=Noyau dur
DYEAR=2005
DGENRE=Rap
TTITLE0=Présentation
TTITLE1=Réconciliation
TTITLE2=Départements
TTITLE3=On ne sera jamais pareils
TTITLE4=Instinct de survie feat Mystik
TTITLE5=Attitude
TTITLE6=Tout est permis (viens...)
TTITLE7=L'histoire continue feat MC Ja
TTITLE8=Mode guerre
TTITLE9=Besoin d'ennemis
TTITLE10=OP
TTITLE11=Partis de rien
TTITLE12=Profesionnels
TTITLE13=Le son des loups feat Dontcha,
TTITLE14=Dead
EXTD=
EXTT0=
EXTT1=
EXTT2=
EXTT3=
EXTT4=
EXTT5=
EXTT6=
EXTT7=
EXTT8=
EXTT9=
EXTT10=
EXTT11=
EXTT12=
EXTT13=
EXTT14=
PLAYORDER=
